<mxfile host="app.diagrams.net" modified="2023-07-19T06:47:21.779Z" agent="Mozilla/5.0 (Macintosh; Intel Mac OS X 10_15_7) AppleWebKit/537.36 (KHTML, like Gecko) Chrome/112.0.0.0 YaBrowser/23.5.4.696 Yowser/2.5 Safari/537.36" etag="3upIFqB6XlWG3rsE3s7M" version="21.6.3" type="github">
  <diagram name="Страница 1" id="m8i3rL95jRp_n12T2zaX">
    <mxGraphModel dx="1137" dy="741" grid="1" gridSize="10" guides="1" tooltips="1" connect="1" arrows="1" fold="1" page="1" pageScale="1" pageWidth="827" pageHeight="1169" math="0" shadow="0">
      <root>
        <mxCell id="0" />
        <mxCell id="1" parent="0" />
        <mxCell id="9YJSJrWpmj1_LHYUSzGh-1" value="Postgres" style="rounded=0;whiteSpace=wrap;html=1;" vertex="1" parent="1">
          <mxGeometry x="640" y="300" width="120" height="60" as="geometry" />
        </mxCell>
        <mxCell id="9YJSJrWpmj1_LHYUSzGh-3" value="" style="rounded=0;whiteSpace=wrap;html=1;" vertex="1" parent="1">
          <mxGeometry x="309" y="150" width="281" height="360" as="geometry" />
        </mxCell>
        <mxCell id="9YJSJrWpmj1_LHYUSzGh-7" value="" style="edgeStyle=orthogonalEdgeStyle;rounded=0;orthogonalLoop=1;jettySize=auto;html=1;" edge="1" parent="1" source="9YJSJrWpmj1_LHYUSzGh-4" target="9YJSJrWpmj1_LHYUSzGh-3">
          <mxGeometry relative="1" as="geometry" />
        </mxCell>
        <mxCell id="9YJSJrWpmj1_LHYUSzGh-4" value="Сайт" style="rounded=0;whiteSpace=wrap;html=1;" vertex="1" parent="1">
          <mxGeometry x="30" y="245" width="210" height="60" as="geometry" />
        </mxCell>
        <mxCell id="9YJSJrWpmj1_LHYUSzGh-8" value="" style="edgeStyle=orthogonalEdgeStyle;rounded=0;orthogonalLoop=1;jettySize=auto;html=1;" edge="1" parent="1" source="9YJSJrWpmj1_LHYUSzGh-5" target="9YJSJrWpmj1_LHYUSzGh-3">
          <mxGeometry relative="1" as="geometry" />
        </mxCell>
        <mxCell id="9YJSJrWpmj1_LHYUSzGh-5" value="Админка" style="rounded=0;whiteSpace=wrap;html=1;" vertex="1" parent="1">
          <mxGeometry x="30" y="325" width="210" height="60" as="geometry" />
        </mxCell>
        <mxCell id="9YJSJrWpmj1_LHYUSzGh-9" value="" style="edgeStyle=orthogonalEdgeStyle;rounded=0;orthogonalLoop=1;jettySize=auto;html=1;" edge="1" parent="1" source="9YJSJrWpmj1_LHYUSzGh-6" target="9YJSJrWpmj1_LHYUSzGh-3">
          <mxGeometry relative="1" as="geometry" />
        </mxCell>
        <mxCell id="9YJSJrWpmj1_LHYUSzGh-6" value="Расширение" style="rounded=0;whiteSpace=wrap;html=1;" vertex="1" parent="1">
          <mxGeometry x="30" y="405" width="210" height="60" as="geometry" />
        </mxCell>
      </root>
    </mxGraphModel>
  </diagram>
</mxfile>
